<?xml version="1.0" encoding="UTF-8" standalone="no" ?>
<!DOCTYPE svg PUBLIC "-//W3C//DTD SVG 1.1//EN" "http://www.w3.org/Graphics/SVG/1.1/DTD/svg11.dtd">
<svg xmlns="http://www.w3.org/2000/svg" xmlns:xlink="http://www.w3.org/1999/xlink" version="1.1" width="1080" height="1080" viewBox="0 0 1080 1080" xml:space="preserve">
<desc>Created with Fabric.js 5.2.4</desc>
<defs>
</defs>
<g transform="matrix(1 0 0 1 540 540)" id="ac6f76d3-1341-4e83-bc50-0176a97c9e9e"  >
<rect style="stroke: none; stroke-width: 1; stroke-dasharray: none; stroke-linecap: butt; stroke-dashoffset: 0; stroke-linejoin: miter; stroke-miterlimit: 4; fill: rgb(255,255,255); fill-rule: nonzero; opacity: 1; visibility: hidden;" vector-effect="non-scaling-stroke"  x="-540" y="-540" rx="0" ry="0" width="1080" height="1080" />
</g>
<g transform="matrix(1 0 0 1 540 540)" id="0dae7b13-f291-4abc-b5e5-6f577d235eef"  >
</g>
<g transform="matrix(1 0 0 1 540 540)" id="72a9a25a-053a-40e7-99c8-4dd35da8261b"  >
<path style="stroke: rgb(0,71,27); stroke-width: 0; stroke-dasharray: none; stroke-linecap: butt; stroke-dashoffset: 0; stroke-linejoin: miter; stroke-miterlimit: 4; fill: rgb(32,192,92); fill-rule: nonzero; opacity: 1;" vector-effect="non-scaling-stroke"  transform=" translate(-480, -564)" d="M 480 912 L 430 867 Q 330 778 265 714.5 Q 200 651 162.5 601.5 Q 125 552 110.5 511 Q 96 470 96 427 Q 96 338 157 277 Q 218 216 307 216 Q 356 216 402 237 Q 448 258 480 296 Q 512 258 558 237 Q 604 216 653 216 Q 742 216 803 277 Q 864 338 864 427 Q 864 470 850 510 Q 836 550 798.5 599 Q 761 648 695.5 712.5 Q 630 777 528 869 L 480 912 Z M 480 815 Q 573 732 633 673.5 Q 693 615 728.5 571.5 Q 764 528 778 494 Q 792 460 792 427 Q 792 368 752 328 Q 712 288 653 288 Q 618 288 587.5 302.5 Q 557 317 535 343 L 500 384 L 460 384 L 425 343 Q 403 317 371.5 302.5 Q 340 288 307 288 Q 248 288 208 328 Q 168 368 168 427 Q 168 460 181 492.5 Q 194 525 228.5 568 Q 263 611 323.5 670 Q 384 729 480 815 Z M 480 551 Z" stroke-linecap="round" />
</g>
<g transform="matrix(NaN NaN NaN NaN 0 0)"  >
<g style=""   >
</g>
</g>
<g transform="matrix(NaN NaN NaN NaN 0 0)"  >
<g style=""   >
</g>
</g>
<g transform="matrix(NaN NaN NaN NaN 0 0)"  >
<g style=""   >
</g>
</g>
<g transform="matrix(NaN NaN NaN NaN 0 0)"  >
<g style=""   >
</g>
</g>
</svg>